<svg width="115" height="20" viewBox="0 0 115 20" fill="none" xmlns="http://www.w3.org/2000/svg">
<path d="M13.26 19H17.758L13.26 0.799999H5.174L0.26 19H4.55L5.538 15.256H12.324L13.26 19ZM8.996 1.97L11.622 12.448H6.266L8.996 1.97ZM26.2693 8.99H28.1413V5.74H26.6853C24.8393 5.74 23.8253 6.832 23.4093 9.172L22.6293 6H19.6133V19H23.4873V12.5C23.4873 9.77 24.1113 8.99 26.2693 8.99ZM35.66 14.632V8.392H39.378V6H35.66V2.724H31.786V6H29.706V8.392H31.786V15.048C31.786 17.492 33.242 19 35.79 19H39.378V16.192H37.246C36.232 16.192 35.66 15.568 35.66 14.632ZM45.628 19V6H41.78V19H45.628ZM43.704 0.227998C42.144 0.227998 41.468 0.825998 41.468 2.256C41.468 3.686 42.144 4.284 43.704 4.284C45.264 4.284 45.94 3.686 45.94 2.256C45.94 0.852 45.264 0.227998 43.704 0.227998ZM54.246 14.632V8.392H57.964V6H54.246V2.724H50.372V6H48.292V8.392H50.372V15.048C50.372 17.492 51.828 19 54.376 19H57.964V16.192H55.832C54.818 16.192 54.246 15.568 54.246 14.632ZM64.2139 19V6H60.3659V19H64.2139ZM62.2899 0.227998C60.7299 0.227998 60.0539 0.825998 60.0539 2.256C60.0539 3.686 60.7299 4.284 62.2899 4.284C63.8499 4.284 64.5259 3.686 64.5259 2.256C64.5259 0.852 63.8499 0.227998 62.2899 0.227998ZM70.3099 9.328C70.3099 8.34 70.9079 7.924 72.3379 7.924C73.7679 7.924 74.3659 8.444 74.3659 9.64H77.7979C77.7979 6.91 76.1599 5.74 72.3379 5.74C68.3599 5.74 66.6699 6.936 66.6699 9.744C66.6699 14.892 74.4179 12.604 74.4179 15.412C74.4179 16.582 73.7939 17.076 72.3379 17.076C70.8819 17.076 70.2579 16.478 70.2579 15.1H66.6179C66.6179 18.012 68.3079 19.26 72.2079 19.26C76.4459 19.26 78.2659 17.986 78.2659 14.996C78.2659 9.796 70.3099 11.876 70.3099 9.328ZM84.501 19V6H80.653V19H84.501ZM82.577 0.227998C81.017 0.227998 80.341 0.825998 80.341 2.256C80.341 3.686 81.017 4.284 82.577 4.284C84.137 4.284 84.813 3.686 84.813 2.256C84.813 0.852 84.137 0.227998 82.577 0.227998ZM96.265 19H99.281V10.576C99.281 7.196 97.487 5.74 93.353 5.74C89.193 5.74 87.425 6.988 87.425 9.9H91.091C91.091 8.522 91.715 7.95 93.249 7.95C94.783 7.95 95.433 8.6 95.433 10.16V10.732H93.483C90.337 10.732 86.905 11.122 86.905 15.152C86.905 18.22 88.543 19.26 91.377 19.26C93.379 19.26 94.861 18.74 95.459 16.452L96.265 19ZM95.433 12.942V13.592C95.433 15.438 94.991 16.66 92.859 16.66C91.403 16.66 90.805 16.218 90.805 14.944C90.805 13.046 92.287 12.942 93.795 12.942H95.433ZM105.148 6H102.132V19H106.006V11.98C106.006 9.588 106.708 8.574 108.346 8.574C109.906 8.574 110.66 9.484 110.66 11.876V19.026H114.534V12.006C114.534 7.638 113.13 5.766 110.01 5.766C107.696 5.766 106.448 6.806 105.954 9.146L105.148 6Z" fill="#828180"/>
</svg>
