<svg width="9" height="11" viewBox="0 0 9 11" fill="none" xmlns="http://www.w3.org/2000/svg">
<path d="M9 5.61195C9 5.92814 8.89773 6.24554 8.69318 6.49971C8.65483 6.54957 8.47585 6.75509 8.33523 6.88886L8.25852 6.96183C7.18466 8.06971 4.51278 9.73578 3.15767 10.2697C3.15767 10.2818 2.35227 10.5992 1.96875 10.6102H1.91761C1.32955 10.6102 0.77983 10.2952 0.49858 9.78443C0.34517 9.50351 0.204545 8.68871 0.191761 8.67777C0.0767046 7.94688 0 6.82806 0 5.59979C0 4.31192 0.0767045 3.14324 0.21733 2.42573C0.21733 2.41357 0.357955 1.75687 0.447443 1.53797C0.588068 1.223 0.84375 0.954235 1.16335 0.783979C1.41903 0.663584 1.6875 0.601562 1.96875 0.601562C2.26278 0.61494 2.8125 0.796141 3.02983 0.881268C4.46165 1.41636 7.19744 3.16756 8.24574 4.23774C8.42472 4.40799 8.61648 4.61595 8.66761 4.66338C8.88494 4.93092 9 5.25927 9 5.61195Z" fill="#473726"/>
</svg>
