<svg width="1440" height="2316" viewBox="0 0 1440 2316" fill="none" xmlns="http://www.w3.org/2000/svg">
<g clip-path="url(#clip0_9_11)">
<rect width="1440" height="2316" fill="#F5F5F5"/>
<path opacity="0.5" d="M1093 0V255.282" stroke="#E6E6E6" stroke-opacity="0.89"/>
<path opacity="0.5" d="M1093 802.05V971" stroke="#E6E6E6" stroke-opacity="0.89"/>
<path opacity="0.5" d="M346 0L346 283.131" stroke="#E6E6E6" stroke-opacity="0.89"/>
<path opacity="0.5" d="M346 579.258L346 971" stroke="#E6E6E6" stroke-opacity="0.89"/>
<path opacity="0.5" d="M97 0V971" stroke="#E6E6E6" stroke-opacity="0.89"/>
<path opacity="0.5" d="M1342 0V971" stroke="#E6E6E6" stroke-opacity="0.89"/>
<path d="M844 0V971" stroke="#E6E6E6" stroke-opacity="0.89"/>
<path d="M595 0V971" stroke="#E6E6E6" stroke-opacity="0.89"/>
<circle opacity="0.2" cx="295.5" cy="177.5" r="1.5" fill="white"/>
<circle opacity="0.2" cx="127.5" cy="155.5" r="1.5" fill="white"/>
<circle opacity="0.2" cx="318.5" cy="237.5" r="1.5" fill="white"/>
<circle opacity="0.2" cx="464.5" cy="128.5" r="1.5" fill="white"/>
<circle opacity="0.2" cx="130.5" cy="257.5" r="1.5" fill="white"/>
<circle opacity="0.2" cx="89.5" cy="234.5" r="1.5" fill="white"/>
<circle opacity="0.2" cx="99.5" cy="296.5" r="1.5" fill="white"/>
<circle opacity="0.2" cx="366.5" cy="306.5" r="1.5" fill="white"/>
<circle opacity="0.2" cx="98.5" cy="706.5" r="1.5" fill="white"/>
<circle opacity="0.2" cx="218.5" cy="682.5" r="1.5" fill="white"/>
<circle opacity="0.2" cx="317.5" cy="749.5" r="1.5" fill="white"/>
<circle opacity="0.2" cx="1025.5" cy="825.5" r="1.5" fill="white"/>
<circle opacity="0.2" cx="1141.5" cy="698.5" r="1.5" fill="white"/>
<circle opacity="0.2" cx="450.5" cy="685.5" r="1.5" fill="white"/>
<circle opacity="0.2" cx="574.5" cy="777.5" r="1.5" fill="white"/>
<circle opacity="0.2" cx="419.5" cy="746.5" r="1.5" fill="white"/>
<circle opacity="0.2" cx="650.5" cy="853.5" r="1.5" fill="white"/>
<circle opacity="0.2" cx="1183.5" cy="877.5" r="1.5" fill="white"/>
<circle opacity="0.2" cx="1304.5" cy="912.5" r="1.5" fill="white"/>
<circle opacity="0.2" cx="1225.5" cy="555.5" r="1.5" fill="white"/>
<circle opacity="0.2" cx="1227.5" cy="363.5" r="1.5" fill="white"/>
<circle opacity="0.2" cx="1074.5" cy="269.5" r="1.5" fill="white"/>
<circle opacity="0.2" cx="1185.5" cy="459.5" r="1.5" fill="white"/>
<circle opacity="0.2" cx="715.5" cy="935.5" r="1.5" fill="white"/>
<circle opacity="0.2" cx="124.5" cy="821.5" r="1.5" fill="white"/>
<circle opacity="0.2" cx="1295.5" cy="85.5" r="1.5" fill="white"/>
<circle opacity="0.2" cx="878.5" cy="58.5" r="1.5" fill="white"/>
<circle opacity="0.2" cx="1221.5" cy="220.5" r="1.5" fill="white"/>
<circle opacity="0.2" cx="1124.5" cy="67.5" r="1.5" fill="white"/>
<circle opacity="0.2" cx="501.5" cy="217.5" r="1.5" fill="white"/>
<circle opacity="0.2" cx="1246.5" cy="417.5" r="1.5" fill="white"/>
<circle opacity="0.2" cx="1173.5" cy="342.5" r="1.5" fill="white"/>
<circle opacity="0.2" cx="1316.5" cy="271.5" r="1.5" fill="white"/>
<circle opacity="0.2" cx="1438.5" cy="56.5" r="1.5" fill="white"/>
<circle opacity="0.2" cx="1279.5" cy="797.5" r="1.5" fill="white"/>
<circle opacity="0.2" cx="1144.5" cy="925.5" r="1.5" fill="white"/>
<circle opacity="0.2" cx="1366.5" cy="916.5" r="1.5" fill="white"/>
<circle opacity="0.2" cx="843.5" cy="903.5" r="1.5" fill="white"/>
<circle opacity="0.2" cx="1110.5" cy="736.5" r="1.5" fill="white"/>
<circle opacity="0.2" cx="1196.5" cy="583.5" r="1.5" fill="white"/>
<circle opacity="0.2" cx="1395.5" cy="589.5" r="1.5" fill="white"/>
<circle opacity="0.2" cx="657.5" cy="69.5" r="1.5" fill="white"/>
<circle opacity="0.2" cx="1211.5" cy="376.5" r="1.5" fill="white"/>
<circle opacity="0.2" cx="998.5" cy="129.5" r="1.5" fill="white"/>
<circle opacity="0.2" cx="215.5" cy="823.5" r="1.5" fill="white"/>
<circle opacity="0.2" cx="258.5" cy="774.5" r="1.5" fill="white"/>
<circle opacity="0.2" cx="54.5" cy="850.5" r="1.5" fill="white"/>
<circle opacity="0.2" cx="1225.5" cy="114.5" r="1.5" fill="white"/>
<circle opacity="0.2" cx="808.5" cy="87.5" r="1.5" fill="white"/>
<circle opacity="0.2" cx="1151.5" cy="259.5" r="1.5" fill="white"/>
<circle opacity="0.2" cx="1054.5" cy="96.5" r="1.5" fill="white"/>
<circle opacity="0.2" cx="431.5" cy="256.5" r="1.5" fill="white"/>
<circle opacity="0.2" cx="1176.5" cy="456.5" r="1.5" fill="white"/>
<circle opacity="0.2" cx="1103.5" cy="371.5" r="1.5" fill="white"/>
<circle opacity="0.2" cx="1252.5" cy="264.5" r="1.5" fill="white"/>
<circle opacity="0.2" cx="1368.5" cy="85.5" r="1.5" fill="white"/>
<circle opacity="0.2" cx="1209.5" cy="826.5" r="1.5" fill="white"/>
<circle opacity="0.2" cx="1074.5" cy="954.5" r="1.5" fill="white"/>
<circle opacity="0.2" cx="1296.5" cy="945.5" r="1.5" fill="white"/>
<circle opacity="0.2" cx="808.5" cy="943.5" r="1.5" fill="white"/>
<circle opacity="0.2" cx="1040.5" cy="765.5" r="1.5" fill="white"/>
<circle opacity="0.2" cx="1126.5" cy="612.5" r="1.5" fill="white"/>
<circle opacity="0.2" cx="1325.5" cy="618.5" r="1.5" fill="white"/>
<circle opacity="0.2" cx="587.5" cy="98.5" r="1.5" fill="white"/>
<circle opacity="0.2" cx="1141.5" cy="415.5" r="1.5" fill="white"/>
<circle opacity="0.2" cx="928.5" cy="158.5" r="1.5" fill="white"/>
<circle opacity="0.2" cx="62.5" cy="948.5" r="1.5" fill="white"/>
<circle opacity="0.2" cx="268.5" cy="844.5" r="1.5" fill="white"/>
<circle opacity="0.2" cx="402.5" cy="876.5" r="1.5" fill="white"/>
<path d="M800 2254L799 2138" stroke="#EEEEEE"/>
</g>
<defs>
<clipPath id="clip0_9_11">
<rect width="1440" height="2316" fill="white"/>
</clipPath>
</defs>
</svg>
