<svg width="1440" height="2316" viewBox="0 0 1440 2316" fill="none" xmlns="http://www.w3.org/2000/svg">
<g clip-path="url(#clip0_9_11)">
<rect width="1440" height="2316" fill="#F5F5F5"/>
<ellipse cx="887.5" cy="465.5" rx="370.5" ry="370.5" transform="rotate(-90 887.5 465.5)" fill="url(#paint0_linear_9_11)"/>
<path opacity="0.5" d="M1093 0V255.282" stroke="#E6E6E6" stroke-opacity="0.89"/>
<path opacity="0.5" d="M1093 802.05V971" stroke="#E6E6E6" stroke-opacity="0.89"/>
<path opacity="0.5" d="M346 0L346 283.131" stroke="#E6E6E6" stroke-opacity="0.89"/>
<path opacity="0.5" d="M346 579.258L346 971" stroke="#E6E6E6" stroke-opacity="0.89"/>
<path opacity="0.5" d="M97 0V971" stroke="#E6E6E6" stroke-opacity="0.89"/>
<path opacity="0.5" d="M1342 0V971" stroke="#E6E6E6" stroke-opacity="0.89"/>
<path d="M844 0V971" stroke="#E6E6E6" stroke-opacity="0.89"/>
<path d="M595 0V971" stroke="#E6E6E6" stroke-opacity="0.89"/>
<circle opacity="0.2" cx="295.5" cy="177.5" r="1.5" fill="white"/>
<circle opacity="0.2" cx="127.5" cy="155.5" r="1.5" fill="white"/>
<circle opacity="0.2" cx="318.5" cy="237.5" r="1.5" fill="white"/>
<circle opacity="0.2" cx="464.5" cy="128.5" r="1.5" fill="white"/>
<circle opacity="0.2" cx="130.5" cy="257.5" r="1.5" fill="white"/>
<circle opacity="0.2" cx="89.5" cy="234.5" r="1.5" fill="white"/>
<circle opacity="0.2" cx="99.5" cy="296.5" r="1.5" fill="white"/>
<circle opacity="0.2" cx="366.5" cy="306.5" r="1.5" fill="white"/>
<circle opacity="0.2" cx="98.5" cy="706.5" r="1.5" fill="white"/>
<circle opacity="0.2" cx="218.5" cy="682.5" r="1.5" fill="white"/>
<circle opacity="0.2" cx="317.5" cy="749.5" r="1.5" fill="white"/>
<circle opacity="0.2" cx="1025.5" cy="825.5" r="1.5" fill="white"/>
<circle opacity="0.2" cx="1141.5" cy="698.5" r="1.5" fill="white"/>
<circle opacity="0.2" cx="450.5" cy="685.5" r="1.5" fill="white"/>
<circle opacity="0.2" cx="574.5" cy="777.5" r="1.5" fill="white"/>
<circle opacity="0.2" cx="419.5" cy="746.5" r="1.5" fill="white"/>
<circle opacity="0.2" cx="650.5" cy="853.5" r="1.5" fill="white"/>
<circle opacity="0.2" cx="1183.5" cy="877.5" r="1.5" fill="white"/>
<circle opacity="0.2" cx="1304.5" cy="912.5" r="1.5" fill="white"/>
<circle opacity="0.2" cx="1225.5" cy="555.5" r="1.5" fill="white"/>
<circle opacity="0.2" cx="1227.5" cy="363.5" r="1.5" fill="white"/>
<circle opacity="0.2" cx="1074.5" cy="269.5" r="1.5" fill="white"/>
<circle opacity="0.2" cx="1185.5" cy="459.5" r="1.5" fill="white"/>
<circle opacity="0.2" cx="715.5" cy="935.5" r="1.5" fill="white"/>
<circle opacity="0.2" cx="124.5" cy="821.5" r="1.5" fill="white"/>
<circle opacity="0.2" cx="1295.5" cy="85.5" r="1.5" fill="white"/>
<circle opacity="0.2" cx="878.5" cy="58.5" r="1.5" fill="white"/>
<circle opacity="0.2" cx="1221.5" cy="220.5" r="1.5" fill="white"/>
<circle opacity="0.2" cx="1124.5" cy="67.5" r="1.5" fill="white"/>
<circle opacity="0.2" cx="501.5" cy="217.5" r="1.5" fill="white"/>
<circle opacity="0.2" cx="1246.5" cy="417.5" r="1.5" fill="white"/>
<circle opacity="0.2" cx="1173.5" cy="342.5" r="1.5" fill="white"/>
<circle opacity="0.2" cx="1316.5" cy="271.5" r="1.5" fill="white"/>
<circle opacity="0.2" cx="1438.5" cy="56.5" r="1.5" fill="white"/>
<circle opacity="0.2" cx="1279.5" cy="797.5" r="1.5" fill="white"/>
<circle opacity="0.2" cx="1144.5" cy="925.5" r="1.5" fill="white"/>
<circle opacity="0.2" cx="1366.5" cy="916.5" r="1.5" fill="white"/>
<circle opacity="0.2" cx="843.5" cy="903.5" r="1.5" fill="white"/>
<circle opacity="0.2" cx="1110.5" cy="736.5" r="1.5" fill="white"/>
<circle opacity="0.2" cx="1196.5" cy="583.5" r="1.5" fill="white"/>
<circle opacity="0.2" cx="1395.5" cy="589.5" r="1.5" fill="white"/>
<circle opacity="0.2" cx="657.5" cy="69.5" r="1.5" fill="white"/>
<circle opacity="0.2" cx="1211.5" cy="376.5" r="1.5" fill="white"/>
<circle opacity="0.2" cx="998.5" cy="129.5" r="1.5" fill="white"/>
<circle opacity="0.2" cx="215.5" cy="823.5" r="1.5" fill="white"/>
<circle opacity="0.2" cx="258.5" cy="774.5" r="1.5" fill="white"/>
<circle opacity="0.2" cx="54.5" cy="850.5" r="1.5" fill="white"/>
<circle opacity="0.2" cx="1225.5" cy="114.5" r="1.5" fill="white"/>
<circle opacity="0.2" cx="808.5" cy="87.5" r="1.5" fill="white"/>
<circle opacity="0.2" cx="1151.5" cy="259.5" r="1.5" fill="white"/>
<circle opacity="0.2" cx="1054.5" cy="96.5" r="1.5" fill="white"/>
<circle opacity="0.2" cx="431.5" cy="256.5" r="1.5" fill="white"/>
<circle opacity="0.2" cx="1176.5" cy="456.5" r="1.5" fill="white"/>
<circle opacity="0.2" cx="1103.5" cy="371.5" r="1.5" fill="white"/>
<circle opacity="0.2" cx="1252.5" cy="264.5" r="1.5" fill="white"/>
<circle opacity="0.2" cx="1368.5" cy="85.5" r="1.5" fill="white"/>
<circle opacity="0.2" cx="1209.5" cy="826.5" r="1.5" fill="white"/>
<circle opacity="0.2" cx="1074.5" cy="954.5" r="1.5" fill="white"/>
<circle opacity="0.2" cx="1296.5" cy="945.5" r="1.5" fill="white"/>
<circle opacity="0.2" cx="808.5" cy="943.5" r="1.5" fill="white"/>
<circle opacity="0.2" cx="1040.5" cy="765.5" r="1.5" fill="white"/>
<circle opacity="0.2" cx="1126.5" cy="612.5" r="1.5" fill="white"/>
<circle opacity="0.2" cx="1325.5" cy="618.5" r="1.5" fill="white"/>
<circle opacity="0.2" cx="587.5" cy="98.5" r="1.5" fill="white"/>
<circle opacity="0.2" cx="1141.5" cy="415.5" r="1.5" fill="white"/>
<circle opacity="0.2" cx="928.5" cy="158.5" r="1.5" fill="white"/>
<circle opacity="0.2" cx="62.5" cy="948.5" r="1.5" fill="white"/>
<circle opacity="0.2" cx="268.5" cy="844.5" r="1.5" fill="white"/>
<circle opacity="0.2" cx="402.5" cy="876.5" r="1.5" fill="white"/>
<path d="M1383 596.025L1383 597.63L1379.77 597.63C1379.22 597.63 1378.86 597.21 1378.86 596.73L1378.87 596.04L1378.15 596.04C1378.05 596.205 1377.96 596.535 1377.96 596.835C1377.96 597.765 1378.71 598.56 1379.65 598.56L1383 598.56L1383 599.565L1383.9 599.565L1383.9 598.56L1389 598.56L1389 597.63L1383.9 597.63L1383.9 596.025L1383 596.025ZM1382.88 591.048C1382.88 591.903 1383.22 592.668 1383.78 593.238L1377.96 593.238L1377.96 594.168L1389 594.168L1389 593.238L1388.22 593.238C1388.77 592.668 1389.12 591.903 1389.12 591.048C1389.12 589.323 1387.72 587.928 1386 587.928C1384.27 587.928 1382.88 589.323 1382.88 591.048ZM1388.19 591.048C1388.19 592.263 1387.21 593.238 1386 593.238C1384.78 593.238 1383.81 592.263 1383.81 591.048C1383.81 589.833 1384.78 588.858 1386 588.858C1387.21 588.858 1388.19 589.833 1388.19 591.048Z" fill="#363636"/>
<path d="M1389 552.83L1389 551.87L1380 551.87L1380 552.83L1389 552.83ZM1382.88 546.639C1382.88 547.194 1383.1 547.704 1383.48 548.094L1383 548.094L1383 549.024L1389 549.024L1389 548.094L1385.17 548.094C1384.41 548.094 1383.81 547.479 1383.81 546.714C1383.81 545.949 1384.41 545.349 1385.17 545.349L1389 545.349L1389 544.419L1385.17 544.419C1383.9 544.419 1382.88 545.484 1382.88 546.639Z" fill="#363636"/>
<path d="M1384.44 504.465C1384.08 503.67 1383.36 503.145 1382.4 503.145C1380.99 503.145 1380 504.255 1380 505.635L1380 508.905L1389 508.905L1389 505.32C1389 503.955 1388.02 502.86 1386.63 502.86C1385.53 502.86 1384.75 503.52 1384.44 504.465ZM1382.47 504.105C1383.36 504.105 1384.03 504.84 1384.03 505.74L1384.03 507.96L1380.96 507.96L1380.96 505.74C1380.96 504.84 1381.59 504.105 1382.47 504.105ZM1388.04 505.44L1388.04 507.96L1384.96 507.96L1384.96 505.44C1384.96 504.555 1385.64 503.82 1386.52 503.82C1387.41 503.82 1388.04 504.555 1388.04 505.44ZM1385.94 494.645C1384.21 494.69 1382.88 496.055 1382.88 497.765C1382.88 499.49 1384.27 500.885 1386 500.885C1387.72 500.885 1389.12 499.49 1389.12 497.765C1389.12 496.34 1388.17 495.155 1386.88 494.765L1386.88 495.755C1387.66 496.085 1388.19 496.865 1388.19 497.765C1388.19 498.95 1387.29 499.895 1386.13 499.955L1386.13 494.66L1385.94 494.645ZM1383.81 497.765C1383.81 496.805 1384.42 495.995 1385.29 495.71L1385.29 499.835C1384.42 499.535 1383.81 498.725 1383.81 497.765Z" fill="#363636"/>
<path d="M1389 459.905L1389 457.445C1389 454.97 1386.99 452.945 1384.5 452.945C1382.01 452.945 1380 454.97 1380 457.445L1380 459.905L1389 459.905ZM1388.04 458.96L1380.96 458.96L1380.96 457.46C1380.96 455.465 1382.47 453.905 1384.5 453.905C1386.52 453.905 1388.04 455.465 1388.04 457.46L1388.04 458.96ZM1382.88 447.591C1382.88 448.446 1383.25 449.136 1383.85 449.586L1383 449.586L1383 450.516L1389 450.516L1389 449.586L1385.74 449.586C1384.65 449.586 1383.81 448.686 1383.81 447.591C1383.81 447.411 1383.82 447.261 1383.87 447.126L1382.92 447.126C1382.89 447.261 1382.88 447.411 1382.88 447.591Z" fill="#363636"/>
<circle cx="682.5" cy="303.5" r="4.5" fill="#5E5E5E"/>
<circle cx="57.5" cy="348.5" r="4.5" fill="#5E5E5E"/>
<circle cx="1312.5" cy="600.5" r="4.5" fill="#473726"/>
<circle cx="664.5" cy="1115.5" r="4.5" fill="#473726"/>
<circle cx="1160.5" cy="147.5" r="4.5" fill="#473726"/>
<g filter="url(#filter0_d_9_11)">
<circle cx="601" cy="792" r="25" fill="url(#paint1_linear_9_11)"/>
</g>
<g filter="url(#filter1_d_9_11)">
<circle cx="1248" cy="326" r="16" fill="url(#paint2_linear_9_11)"/>
</g>
<g filter="url(#filter2_d_9_11)">
<circle cx="1386" cy="502" r="15.75" stroke="#472D26" stroke-width="0.5" shape-rendering="crispEdges"/>
</g>
<g filter="url(#filter3_d_9_11)">
<circle cx="1186" cy="764" r="40" fill="url(#paint3_linear_9_11)"/>
</g>
<circle cx="1186" cy="764" r="50.75" stroke="#CECECE" stroke-width="0.5" stroke-dasharray="1 1"/>
<g filter="url(#filter4_d_9_11)">
<circle cx="705" cy="218" r="40" fill="url(#paint4_linear_9_11)"/>
</g>
<circle cx="705" cy="218" r="52.75" stroke="#CECECE" stroke-width="0.5" stroke-dasharray="1 1"/>
</g>
<defs>
<filter id="filter0_d_9_11" x="520" y="767" width="136" height="140" filterUnits="userSpaceOnUse" color-interpolation-filters="sRGB">
<feFlood flood-opacity="0" result="BackgroundImageFix"/>
<feColorMatrix in="SourceAlpha" type="matrix" values="0 0 0 0 0 0 0 0 0 0 0 0 0 0 0 0 0 0 127 0" result="hardAlpha"/>
<feOffset dx="-13" dy="47"/>
<feGaussianBlur stdDeviation="21.5"/>
<feComposite in2="hardAlpha" operator="out"/>
<feColorMatrix type="matrix" values="0 0 0 0 0 0 0 0 0 0 0 0 0 0 0 0 0 0 0.1 0"/>
<feBlend mode="normal" in2="BackgroundImageFix" result="effect1_dropShadow_9_11"/>
<feBlend mode="normal" in="SourceGraphic" in2="effect1_dropShadow_9_11" result="shape"/>
</filter>
<filter id="filter1_d_9_11" x="1179" y="307" width="120" height="120" filterUnits="userSpaceOnUse" color-interpolation-filters="sRGB">
<feFlood flood-opacity="0" result="BackgroundImageFix"/>
<feColorMatrix in="SourceAlpha" type="matrix" values="0 0 0 0 0 0 0 0 0 0 0 0 0 0 0 0 0 0 127 0" result="hardAlpha"/>
<feOffset dx="-9" dy="41"/>
<feGaussianBlur stdDeviation="22"/>
<feComposite in2="hardAlpha" operator="out"/>
<feColorMatrix type="matrix" values="0 0 0 0 0 0 0 0 0 0 0 0 0 0 0 0 0 0 0.1 0"/>
<feBlend mode="normal" in2="BackgroundImageFix" result="effect1_dropShadow_9_11"/>
<feBlend mode="normal" in="SourceGraphic" in2="effect1_dropShadow_9_11" result="shape"/>
</filter>
<filter id="filter2_d_9_11" x="1317" y="483" width="120" height="120" filterUnits="userSpaceOnUse" color-interpolation-filters="sRGB">
<feFlood flood-opacity="0" result="BackgroundImageFix"/>
<feColorMatrix in="SourceAlpha" type="matrix" values="0 0 0 0 0 0 0 0 0 0 0 0 0 0 0 0 0 0 127 0" result="hardAlpha"/>
<feOffset dx="-9" dy="41"/>
<feGaussianBlur stdDeviation="22"/>
<feComposite in2="hardAlpha" operator="out"/>
<feColorMatrix type="matrix" values="0 0 0 0 0 0 0 0 0 0 0 0 0 0 0 0 0 0 0.1 0"/>
<feBlend mode="normal" in2="BackgroundImageFix" result="effect1_dropShadow_9_11"/>
<feBlend mode="normal" in="SourceGraphic" in2="effect1_dropShadow_9_11" result="shape"/>
</filter>
<filter id="filter3_d_9_11" x="1093" y="721" width="168" height="168" filterUnits="userSpaceOnUse" color-interpolation-filters="sRGB">
<feFlood flood-opacity="0" result="BackgroundImageFix"/>
<feColorMatrix in="SourceAlpha" type="matrix" values="0 0 0 0 0 0 0 0 0 0 0 0 0 0 0 0 0 0 127 0" result="hardAlpha"/>
<feOffset dx="-9" dy="41"/>
<feGaussianBlur stdDeviation="22"/>
<feComposite in2="hardAlpha" operator="out"/>
<feColorMatrix type="matrix" values="0 0 0 0 0 0 0 0 0 0 0 0 0 0 0 0 0 0 0.1 0"/>
<feBlend mode="normal" in2="BackgroundImageFix" result="effect1_dropShadow_9_11"/>
<feBlend mode="normal" in="SourceGraphic" in2="effect1_dropShadow_9_11" result="shape"/>
</filter>
<filter id="filter4_d_9_11" x="609" y="178" width="166" height="170" filterUnits="userSpaceOnUse" color-interpolation-filters="sRGB">
<feFlood flood-opacity="0" result="BackgroundImageFix"/>
<feColorMatrix in="SourceAlpha" type="matrix" values="0 0 0 0 0 0 0 0 0 0 0 0 0 0 0 0 0 0 127 0" result="hardAlpha"/>
<feOffset dx="-13" dy="47"/>
<feGaussianBlur stdDeviation="21.5"/>
<feComposite in2="hardAlpha" operator="out"/>
<feColorMatrix type="matrix" values="0 0 0 0 0 0 0 0 0 0 0 0 0 0 0 0 0 0 0.1 0"/>
<feBlend mode="normal" in2="BackgroundImageFix" result="effect1_dropShadow_9_11"/>
<feBlend mode="normal" in="SourceGraphic" in2="effect1_dropShadow_9_11" result="shape"/>
</filter>
<linearGradient id="paint0_linear_9_11" x1="1101.73" y1="158.539" x2="685.292" y2="807.236" gradientUnits="userSpaceOnUse">
<stop stop-color="#EAEAEA"/>
<stop offset="1" stop-color="#F7F7F7" stop-opacity="0"/>
</linearGradient>
<linearGradient id="paint1_linear_9_11" x1="620.792" y1="777.764" x2="582.424" y2="807.451" gradientUnits="userSpaceOnUse">
<stop stop-color="#FAF7F7"/>
<stop offset="1" stop-color="#CCCCCC"/>
</linearGradient>
<linearGradient id="paint2_linear_9_11" x1="1264" y1="342" x2="1239.53" y2="317.765" gradientUnits="userSpaceOnUse">
<stop stop-color="#473726"/>
<stop offset="1" stop-color="#B2A589"/>
</linearGradient>
<linearGradient id="paint3_linear_9_11" x1="1211.06" y1="789.652" x2="1164.82" y2="743.412" gradientUnits="userSpaceOnUse">
<stop stop-color="#473726"/>
<stop offset="1" stop-color="#BAB09A"/>
</linearGradient>
<linearGradient id="paint4_linear_9_11" x1="736.667" y1="195.222" x2="675.278" y2="242.722" gradientUnits="userSpaceOnUse">
<stop stop-color="#FAF7F7"/>
<stop offset="1" stop-color="#CCCCCC"/>
</linearGradient>
<clipPath id="clip0_9_11">
<rect width="1440" height="2316" fill="white"/>
</clipPath>
</defs>
</svg>
