<svg width="18" height="13" viewBox="0 0 18 13" fill="none" xmlns="http://www.w3.org/2000/svg">
<path d="M17.35 0.299998C16.8833 2.23333 16.4167 4.33333 15.95 6.6C15.4833 8.83333 15.1167 10.8167 14.85 12.55H10.1L9.75 12C10.2167 10.2333 10.85 8.3 11.65 6.2C12.45 4.06667 13.2667 2.1 14.1 0.299998H17.35ZM8.1 0.299998C7.63333 2.23333 7.16667 4.33333 6.7 6.6C6.23333 8.83333 5.86667 10.8167 5.6 12.55H0.9L0.6 12C1.06667 10.2333 1.68333 8.3 2.45 6.2C3.25 4.06667 4.06667 2.1 4.9 0.299998H8.1Z" fill="black"/>
</svg>
